<svg width="40" height="40" viewBox="0 0 40 40" fill="none" xmlns="http://www.w3.org/2000/svg">
<rect width="40" height="40" fill="#CA3183"/>
<g clip-path="url(#clip0_50_284)">
<path d="M24.375 29.375H15.625C12.875 29.375 10.625 27.125 10.625 24.375V15.625C10.625 12.875 12.875 10.625 15.625 10.625H24.375C27.125 10.625 29.375 12.875 29.375 15.625V24.375C29.375 27.125 27.125 29.375 24.375 29.375Z" stroke="white" stroke-width="2" stroke-miterlimit="10" stroke-linecap="round" stroke-linejoin="round"/>
<path d="M20 24.375C22.4162 24.375 24.375 22.4162 24.375 20C24.375 17.5838 22.4162 15.625 20 15.625C17.5838 15.625 15.625 17.5838 15.625 20C15.625 22.4162 17.5838 24.375 20 24.375Z" stroke="white" stroke-width="2" stroke-miterlimit="10" stroke-linecap="round" stroke-linejoin="round"/>
<path d="M25 15C25.3452 15 25.625 14.7202 25.625 14.375C25.625 14.0298 25.3452 13.75 25 13.75C24.6548 13.75 24.375 14.0298 24.375 14.375C24.375 14.7202 24.6548 15 25 15Z" stroke="white" stroke-width="2" stroke-miterlimit="10" stroke-linecap="round" stroke-linejoin="round"/>
</g>
<defs>
<clipPath id="clip0_50_284">
<rect width="20" height="20" fill="white" transform="translate(10 10)"/>
</clipPath>
</defs>
</svg>
