<svg width="540" height="540" viewBox="0 0 540 540" fill="none" xmlns="http://www.w3.org/2000/svg">
<path d="M44.7336 321.538L53.1684 316.667C53.1684 316.667 58.1904 295.79 56.1924 277.02C53.3736 250.614 35.9964 240.678 29.3868 242.957C22.7772 245.236 20.8656 252.914 31.806 268.639C38.2536 277.916 46.1808 297.238 44.7336 321.538Z" fill="#00844B"/>
<g opacity="0.65">
<path d="M44.7336 321.538L53.1684 316.667C53.1684 316.667 58.1904 295.79 56.1924 277.02C53.3736 250.614 35.9964 240.678 29.3868 242.957C22.7772 245.236 20.8656 252.914 31.806 268.639C38.2536 277.916 46.1808 297.238 44.7336 321.538Z" fill="white"/>
</g>
<path d="M48.2328 311.288H48.1464C47.9947 311.26 47.8606 311.172 47.7735 311.044C47.6865 310.917 47.6535 310.76 47.682 310.608C52.3044 286.2 43.8048 258.876 33.264 247.493C33.1594 247.378 33.1047 247.227 33.1118 247.072C33.1189 246.917 33.1872 246.771 33.3018 246.667C33.4164 246.562 33.5678 246.507 33.7227 246.514C33.8777 246.521 34.0235 246.59 34.128 246.704C44.8524 258.293 53.568 286.103 48.8268 310.813C48.801 310.95 48.7269 311.074 48.6179 311.161C48.5089 311.248 48.3723 311.293 48.2328 311.288Z" fill="white"/>
<path d="M23.49 333.796C22.2372 334.444 18.8784 331.571 17.9496 330.88C16.35 329.663 15.0894 328.057 14.2884 326.214C13.3854 324.125 13.1588 321.807 13.6404 319.583C13.898 318.409 14.2372 317.254 14.6556 316.127C15.0336 315.047 15.4116 313.902 15.8004 312.779C16.2512 311.702 16.479 310.544 16.47 309.377C16.2864 307.044 14.31 305.316 12.5064 303.815C10.5084 302.152 8.45641 300.002 8.60761 297.205C8.86976 295.041 9.84206 293.024 11.3724 291.47C12.7872 289.85 14.4504 288.425 15.7572 286.708C16.7768 285.496 17.3488 283.971 17.3772 282.388C17.2973 281.421 17.0217 280.48 16.5672 279.623C15.5184 277.834 14.6155 275.963 13.8672 274.028C13.2948 272.041 13.5108 269.611 15.1092 268.283C15.8188 267.812 16.6143 267.486 17.45 267.323C18.2858 267.16 19.1455 267.163 19.98 267.332C21.5582 267.609 23.0577 268.225 24.3756 269.136C28.6956 271.825 30.9636 277.214 35.5752 279.353C37.4145 280.026 39.2937 280.585 41.202 281.027C42.158 281.256 43.0558 281.682 43.8385 282.277C44.6212 282.872 45.2717 283.623 45.7488 284.483C47.304 288.025 43.8804 292.129 44.9064 295.855C45.8244 299.095 48.9132 300.553 50.5332 303.566C51.1958 304.903 51.4116 306.418 51.1488 307.886C50.8695 310.361 50.1373 312.762 48.9888 314.971C47.6996 317.24 46.275 319.429 44.7228 321.527C44.7228 321.527 23.6844 333.72 23.49 333.796Z" fill="#00844B"/>
<g opacity="0.3">
<path d="M23.49 333.796C22.2372 334.444 18.8784 331.571 17.9496 330.88C16.35 329.663 15.0894 328.057 14.2884 326.214C13.3854 324.125 13.1588 321.807 13.6404 319.583C13.898 318.409 14.2372 317.254 14.6556 316.127C15.0336 315.047 15.4116 313.902 15.8004 312.779C16.2512 311.702 16.479 310.544 16.47 309.377C16.2864 307.044 14.31 305.316 12.5064 303.815C10.5084 302.152 8.45641 300.002 8.60761 297.205C8.86976 295.041 9.84206 293.024 11.3724 291.47C12.7872 289.85 14.4504 288.425 15.7572 286.708C16.7768 285.496 17.3488 283.971 17.3772 282.388C17.2973 281.421 17.0217 280.48 16.5672 279.623C15.5184 277.834 14.6155 275.963 13.8672 274.028C13.2948 272.041 13.5108 269.611 15.1092 268.283C15.8188 267.812 16.6143 267.486 17.45 267.323C18.2858 267.16 19.1455 267.163 19.98 267.332C21.5582 267.609 23.0577 268.225 24.3756 269.136C28.6956 271.825 30.9636 277.214 35.5752 279.353C37.4145 280.026 39.2937 280.585 41.202 281.027C42.158 281.256 43.0558 281.682 43.8385 282.277C44.6212 282.872 45.2717 283.623 45.7488 284.483C47.304 288.025 43.8804 292.129 44.9064 295.855C45.8244 299.095 48.9132 300.553 50.5332 303.566C51.1958 304.903 51.4116 306.418 51.1488 307.886C50.8695 310.361 50.1373 312.762 48.9888 314.971C47.6996 317.24 46.275 319.429 44.7228 321.527C44.7228 321.527 23.6844 333.72 23.49 333.796Z" fill="white"/>
</g>
<path d="M35.7048 327.434C35.5576 327.421 35.4218 327.35 35.3268 327.236C35.2317 327.123 35.1852 326.977 35.1972 326.83C37.2168 304.927 28.1016 280.174 20.9304 272.754C20.8287 272.648 20.7733 272.506 20.7763 272.359C20.7794 272.212 20.8406 272.073 20.9466 271.971C21.0526 271.869 21.1946 271.814 21.3415 271.817C21.4883 271.82 21.6279 271.881 21.7296 271.987C29.0412 279.547 38.3508 304.722 36.2988 326.927C36.2933 326.999 36.2736 327.07 36.2408 327.135C36.2079 327.199 36.1626 327.257 36.1074 327.304C36.0522 327.351 35.9882 327.387 35.9191 327.41C35.85 327.432 35.7772 327.44 35.7048 327.434Z" fill="white"/>
<path d="M33.534 300.434H33.372C28.2441 298.725 22.9466 297.573 17.5716 297C17.4996 296.995 17.4294 296.975 17.3652 296.942C17.301 296.909 17.2441 296.863 17.1977 296.808C17.1514 296.753 17.1167 296.688 17.0956 296.619C17.0745 296.55 17.0674 296.478 17.0748 296.406C17.0771 296.332 17.0951 296.258 17.1276 296.191C17.1601 296.124 17.2065 296.065 17.2636 296.017C17.3207 295.969 17.3872 295.934 17.4589 295.913C17.5306 295.893 17.6058 295.888 17.6796 295.898C23.1448 296.459 28.533 297.611 33.75 299.333C33.8699 299.383 33.9687 299.473 34.0297 299.587C34.0907 299.702 34.1102 299.834 34.0847 299.961C34.0593 300.089 33.9905 300.203 33.8901 300.286C33.7897 300.368 33.6638 300.413 33.534 300.413V300.434Z" fill="white"/>
<path d="M495.266 321.538L486.832 316.667C486.832 316.667 481.81 295.79 483.808 277.02C486.626 250.614 504.004 240.678 510.613 242.957C517.223 245.236 519.134 252.914 508.194 268.639C501.746 277.916 493.819 297.238 495.266 321.538Z" fill="#00844B"/>
<g opacity="0.65">
<path d="M495.266 321.538L486.832 316.667C486.832 316.667 481.81 295.79 483.808 277.02C486.626 250.614 504.004 240.678 510.613 242.957C517.223 245.236 519.134 252.914 508.194 268.639C501.746 277.916 493.819 297.238 495.266 321.538Z" fill="white"/>
</g>
<path d="M491.767 311.288H491.854C492.005 311.26 492.139 311.172 492.227 311.044C492.314 310.917 492.346 310.76 492.318 310.608C487.696 286.254 496.195 258.887 506.736 247.504C506.841 247.389 506.895 247.238 506.888 247.083C506.881 246.928 506.813 246.782 506.698 246.677C506.584 246.573 506.432 246.518 506.277 246.525C506.122 246.532 505.977 246.601 505.872 246.715C495.148 258.304 486.432 286.114 491.173 310.824C491.201 310.959 491.276 311.08 491.385 311.165C491.494 311.25 491.629 311.294 491.767 311.288Z" fill="white"/>
<path d="M516.51 333.796C517.763 334.444 521.122 331.571 522.05 330.88C523.65 329.663 524.911 328.057 525.712 326.214C526.615 324.125 526.841 321.807 526.36 319.583C526.102 318.409 525.763 317.254 525.344 316.127C524.966 315.047 524.588 313.902 524.2 312.779C523.749 311.702 523.521 310.544 523.53 309.377C523.714 307.044 525.69 305.316 527.494 303.815C529.492 302.152 531.544 300.002 531.392 297.205C531.13 295.041 530.158 293.024 528.628 291.47C527.213 289.85 525.55 288.425 524.243 286.708C523.223 285.496 522.651 283.971 522.623 282.388C522.703 281.421 522.978 280.48 523.433 279.623C524.482 277.834 525.385 275.963 526.133 274.028C526.705 272.041 526.489 269.611 524.891 268.283C524.181 267.812 523.386 267.486 522.55 267.323C521.714 267.16 520.855 267.163 520.02 267.332C518.442 267.609 516.942 268.225 515.624 269.136C511.304 271.825 509.036 277.214 504.425 279.353C502.586 280.026 500.706 280.585 498.798 281.027C497.842 281.256 496.944 281.682 496.162 282.277C495.379 282.872 494.728 283.623 494.251 284.483C492.696 288.025 496.12 292.129 495.094 295.855C494.176 299.095 491.087 300.553 489.467 303.566C488.804 304.903 488.588 306.418 488.851 307.886C489.131 310.361 489.863 312.762 491.011 314.971C492.3 317.24 493.725 319.429 495.277 321.527C495.277 321.527 516.316 333.72 516.51 333.796Z" fill="#00844B"/>
<g opacity="0.3">
<path d="M516.51 333.796C517.763 334.444 521.122 331.571 522.05 330.88C523.65 329.663 524.911 328.057 525.712 326.214C526.615 324.125 526.841 321.807 526.36 319.583C526.102 318.409 525.763 317.254 525.344 316.127C524.966 315.047 524.588 313.902 524.2 312.779C523.749 311.702 523.521 310.544 523.53 309.377C523.714 307.044 525.69 305.316 527.494 303.815C529.492 302.152 531.544 300.002 531.392 297.205C531.13 295.041 530.158 293.024 528.628 291.47C527.213 289.85 525.55 288.425 524.243 286.708C523.223 285.496 522.651 283.971 522.623 282.388C522.703 281.421 522.978 280.48 523.433 279.623C524.482 277.834 525.385 275.963 526.133 274.028C526.705 272.041 526.489 269.611 524.891 268.283C524.181 267.812 523.386 267.486 522.55 267.323C521.714 267.16 520.855 267.163 520.02 267.332C518.442 267.609 516.942 268.225 515.624 269.136C511.304 271.825 509.036 277.214 504.425 279.353C502.586 280.026 500.706 280.585 498.798 281.027C497.842 281.256 496.944 281.682 496.162 282.277C495.379 282.872 494.728 283.623 494.251 284.483C492.696 288.025 496.12 292.129 495.094 295.855C494.176 299.095 491.087 300.553 489.467 303.566C488.804 304.903 488.588 306.418 488.851 307.886C489.131 310.361 489.863 312.762 491.011 314.971C492.3 317.24 493.725 319.429 495.277 321.527C495.277 321.527 516.316 333.72 516.51 333.796Z" fill="white"/>
</g>
<path d="M504.295 327.434C504.442 327.421 504.578 327.35 504.673 327.236C504.768 327.123 504.815 326.977 504.803 326.83C502.783 304.927 511.898 280.174 519.07 272.754C519.171 272.648 519.227 272.506 519.224 272.359C519.221 272.212 519.159 272.073 519.053 271.971C518.947 271.869 518.805 271.814 518.659 271.817C518.512 271.82 518.372 271.881 518.27 271.987C510.959 279.547 501.649 304.722 503.701 326.927C503.707 326.999 503.726 327.07 503.759 327.135C503.792 327.199 503.837 327.257 503.893 327.304C503.948 327.351 504.012 327.387 504.081 327.41C504.15 327.432 504.223 327.44 504.295 327.434Z" fill="white"/>
<path d="M506.52 300.434H506.682C511.792 298.728 517.072 297.577 522.428 297C522.5 296.995 522.571 296.975 522.635 296.942C522.699 296.909 522.756 296.863 522.802 296.808C522.849 296.753 522.883 296.688 522.904 296.619C522.926 296.55 522.933 296.478 522.925 296.406C522.923 296.332 522.905 296.258 522.872 296.191C522.84 296.124 522.794 296.065 522.736 296.017C522.679 295.969 522.613 295.934 522.541 295.913C522.469 295.893 522.394 295.888 522.32 295.898C516.855 296.459 511.467 297.611 506.25 299.333C506.13 299.383 506.031 299.473 505.97 299.587C505.909 299.702 505.89 299.834 505.915 299.961C505.941 300.089 506.01 300.203 506.11 300.286C506.21 300.368 506.336 300.413 506.466 300.413L506.52 300.434Z" fill="white"/>
<path d="M270 532.926C414.56 532.926 531.749 465.265 531.749 381.802C531.749 298.338 414.56 230.677 270 230.677C125.44 230.677 8.25119 298.338 8.25119 381.802C8.25119 465.265 125.44 532.926 270 532.926Z" fill="#F6FFFF"/>
<path d="M209.736 407.97L284.396 364.867L192.164 311.623L117.504 354.726L209.736 407.97Z" fill="#E0E0E0"/>
<path d="M316.721 501.898L386.197 461.786L316.721 421.675L247.255 461.786L316.721 501.898Z" fill="#E0E0E0"/>
<path d="M422.723 443.912C456.197 443.912 483.332 428.246 483.332 408.92C483.332 389.595 456.197 373.928 422.723 373.928C389.249 373.928 362.113 389.595 362.113 408.92C362.113 428.246 389.249 443.912 422.723 443.912Z" fill="#E0E0E0"/>
<path d="M107.503 450.122C149.709 450.122 183.924 430.37 183.924 406.004C183.924 381.639 149.709 361.886 107.503 361.886C65.2972 361.886 31.0824 381.639 31.0824 406.004C31.0824 430.37 65.2972 450.122 107.503 450.122Z" fill="#E0E0E0"/>
<path d="M22.3992 100.721C22.2703 100.722 22.1436 100.688 22.032 100.624C21.9166 100.56 21.8206 100.466 21.754 100.352C21.6875 100.238 21.653 100.108 21.654 99.9756V75.2976C21.653 75.1656 21.6875 75.0358 21.754 74.9217C21.8206 74.8077 21.9166 74.7137 22.032 74.6496L43.2648 62.3916C43.3769 62.3229 43.5059 62.2865 43.6374 62.2865C43.7689 62.2865 43.8979 62.3229 44.01 62.3916C44.1227 62.4579 44.2159 62.5527 44.2804 62.6665C44.3448 62.7802 44.3782 62.9089 44.3772 63.0396V87.7284C44.3775 87.8589 44.3425 87.9869 44.276 88.0991C44.2094 88.2112 44.1138 88.3033 43.9992 88.3656L22.7772 100.624C22.6614 100.687 22.5314 100.721 22.3992 100.721ZM23.1444 75.7188V98.6904L42.8868 87.2964V64.3248L23.1444 75.7188Z" fill="#E0E0E0"/>
<path d="M22.3992 142.679C22.2686 142.681 22.1405 142.644 22.032 142.571C21.9174 142.508 21.8218 142.416 21.7553 142.304C21.6887 142.192 21.6538 142.064 21.654 141.934V117.245C21.653 117.113 21.6875 116.983 21.754 116.869C21.8206 116.755 21.9166 116.661 22.032 116.597L43.2648 104.339C43.3788 104.275 43.507 104.242 43.6374 104.242C43.7678 104.242 43.896 104.275 44.01 104.339C44.1227 104.405 44.2159 104.5 44.2804 104.614C44.3448 104.727 44.3782 104.856 44.3772 104.987V129.676C44.3771 129.807 44.3421 129.937 44.2757 130.051C44.2093 130.164 44.1139 130.259 43.9992 130.324L22.7772 142.56C22.6655 142.636 22.5341 142.677 22.3992 142.679ZM23.1444 117.72V140.681L42.8868 129.287V106.272L23.1444 117.72Z" fill="#E0E0E0"/>
<path d="M32.7564 131.134L27.8208 126.382L29.4624 122.882L32.2812 125.582L44.4528 99.8352L46.5804 101.876L32.7564 131.134Z" fill="#00844B"/>
<path d="M22.3992 184.68C22.2704 184.681 22.1436 184.647 22.032 184.583C21.9181 184.517 21.8233 184.423 21.757 184.309C21.6907 184.195 21.6552 184.066 21.654 183.935V159.192C21.6541 159.06 21.6891 158.931 21.7555 158.817C21.8219 158.703 21.9173 158.609 22.032 158.544L43.2648 146.286C43.3771 146.229 43.5018 146.202 43.6275 146.207C43.7531 146.212 43.8755 146.248 43.9832 146.313C44.091 146.377 44.1807 146.468 44.2439 146.577C44.3071 146.685 44.3418 146.808 44.3448 146.934V171.623C44.3459 171.755 44.3113 171.885 44.2448 171.999C44.1783 172.113 44.0823 172.207 43.9668 172.271L22.7772 184.529C22.6666 184.611 22.5363 184.664 22.3992 184.68ZM23.1444 159.678V182.639L42.8868 171.245V148.23L23.1444 159.678Z" fill="#E0E0E0"/>
<path d="M517.223 100.624L496.001 88.3656C495.886 88.3033 495.791 88.2112 495.724 88.0991C495.658 87.9869 495.623 87.8589 495.623 87.7284V63.0396C495.622 62.9089 495.655 62.7802 495.72 62.6665C495.784 62.5527 495.877 62.4579 495.99 62.3916C496.102 62.3229 496.231 62.2865 496.363 62.2865C496.494 62.2865 496.623 62.3229 496.735 62.3916L517.968 74.6496C518.083 74.7137 518.179 74.8077 518.246 74.9217C518.313 75.0358 518.347 75.1656 518.346 75.2976V99.9756C518.347 100.108 518.313 100.238 518.246 100.352C518.179 100.466 518.083 100.56 517.968 100.624C517.856 100.688 517.73 100.722 517.601 100.721C517.469 100.721 517.339 100.687 517.223 100.624ZM497.113 64.3248V87.2964L516.856 98.6904V75.7188L497.113 64.3248Z" fill="#E0E0E0"/>
<path d="M517.223 142.56L496.001 130.313C495.886 130.248 495.791 130.154 495.724 130.04C495.658 129.926 495.623 129.797 495.623 129.665V104.987C495.622 104.856 495.655 104.727 495.72 104.614C495.784 104.5 495.877 104.405 495.99 104.339C496.104 104.275 496.232 104.242 496.363 104.242C496.493 104.242 496.621 104.275 496.735 104.339L517.968 116.64C518.083 116.704 518.179 116.798 518.246 116.912C518.313 117.026 518.347 117.156 518.346 117.288V141.977C518.346 142.107 518.311 142.235 518.245 142.347C518.178 142.46 518.083 142.552 517.968 142.614C517.86 142.687 517.731 142.724 517.601 142.722C517.461 142.708 517.329 142.651 517.223 142.56ZM497.113 106.272V129.244L516.856 140.638V117.72L497.113 106.272Z" fill="#E0E0E0"/>
<path d="M517.223 184.529L496.001 172.271C495.885 172.207 495.789 172.113 495.723 171.999C495.656 171.885 495.622 171.755 495.623 171.623V146.934C495.626 146.808 495.661 146.685 495.724 146.577C495.787 146.468 495.877 146.377 495.984 146.313C496.092 146.248 496.215 146.212 496.34 146.207C496.466 146.202 496.591 146.229 496.703 146.286L517.968 158.544C518.083 158.609 518.178 158.703 518.245 158.817C518.311 158.931 518.346 159.06 518.346 159.192V183.881C518.345 184.012 518.309 184.141 518.243 184.255C518.177 184.369 518.082 184.463 517.968 184.529C517.856 184.593 517.73 184.627 517.601 184.626C517.469 184.626 517.339 184.592 517.223 184.529ZM497.113 148.23V171.191L516.856 182.585V159.624L497.113 148.23Z" fill="#E0E0E0"/>
<path d="M505.98 171.58L501.044 161.125L503.323 158.944L506.617 165.964L518.152 154.84L519.804 158.285L505.98 171.58Z" fill="#00844B"/>
<path d="M214.002 73.44L192.769 61.2036C192.657 61.139 192.565 61.0462 192.5 60.9343C192.436 60.8224 192.402 60.6955 192.402 60.5664V35.8776C192.403 35.746 192.439 35.6171 192.505 35.5034C192.571 35.3898 192.666 35.2954 192.78 35.2296C192.894 35.1662 193.022 35.133 193.153 35.133C193.283 35.133 193.411 35.1662 193.525 35.2296L214.747 47.52C214.86 47.5863 214.953 47.6811 215.018 47.7948C215.082 47.9086 215.115 48.0373 215.114 48.168V72.8136C215.115 72.9443 215.082 73.073 215.018 73.1868C214.953 73.3005 214.86 73.3953 214.747 73.4616C214.632 73.5285 214.502 73.5656 214.369 73.5696C214.238 73.5592 214.111 73.5145 214.002 73.44ZM193.892 37.1628V60.1344L213.624 71.5284V48.6L193.892 37.1628Z" fill="#E0E0E0"/>
<path d="M203.418 61.9164L198.482 51.462L200.761 49.2804L204.055 56.3004L215.59 45.1764L217.242 48.6216L203.418 61.9164Z" fill="#00844B"/>
<path d="M246.92 92.4588L225.72 80.2008C225.605 80.1385 225.51 80.0464 225.443 79.9342C225.377 79.8221 225.342 79.694 225.342 79.5636V54.8748C225.341 54.7441 225.374 54.6154 225.439 54.5016C225.503 54.3879 225.597 54.2931 225.709 54.2268C225.823 54.1634 225.951 54.1302 226.082 54.1302C226.212 54.1302 226.34 54.1634 226.454 54.2268L247.687 66.4848C247.803 66.5489 247.899 66.6429 247.965 66.7569C248.032 66.8709 248.066 67.0008 248.065 67.1328V91.8C248.06 91.997 247.98 92.1846 247.842 92.3249C247.703 92.4653 247.517 92.5479 247.32 92.556C247.181 92.559 247.043 92.5255 246.92 92.4588ZM226.8 56.16V79.1316L246.542 90.5256V67.554L226.8 56.16Z" fill="#E0E0E0"/>
<path d="M279.806 111.456L258.584 99.2088C258.47 99.1439 258.374 99.0497 258.308 98.9358C258.242 98.822 258.207 98.6926 258.206 98.5608V73.872C258.205 73.7413 258.239 73.6126 258.303 73.4988C258.368 73.3851 258.461 73.2903 258.574 73.224C258.688 73.1606 258.816 73.1274 258.946 73.1274C259.077 73.1274 259.205 73.1606 259.319 73.224L280.552 85.482C280.667 85.5461 280.763 85.6401 280.83 85.7541C280.896 85.8681 280.931 85.998 280.93 86.13V110.819C280.93 110.949 280.895 111.077 280.828 111.189C280.762 111.302 280.666 111.394 280.552 111.456C280.443 111.528 280.315 111.565 280.184 111.564C280.051 111.565 279.919 111.528 279.806 111.456ZM259.697 75.1572V98.1288L279.439 109.523V86.562L259.697 75.1572Z" fill="#E0E0E0"/>
<path d="M195.728 174.301L136.08 350.946L131.814 353.408L191.473 176.764L195.728 174.301Z" fill="#455A64"/>
<path d="M131.814 353.408L129.708 352.199L189.356 175.543L191.473 176.764L131.814 353.408Z" fill="#263238"/>
<path d="M191.473 318.967L189.356 317.758L129.708 209.995L131.814 211.205L191.473 318.967Z" fill="#263238"/>
<path d="M136.08 208.742L195.728 316.505L191.473 318.967L131.814 211.205L136.08 208.742Z" fill="#455A64"/>
<path d="M210.665 251.813V256.738L274.579 219.834V214.92L210.665 251.813Z" fill="#455A64"/>
<path d="M210.665 251.813V256.738L129.708 209.995V205.07L210.665 251.813Z" fill="#37474F"/>
<path d="M274.579 219.834L214.931 396.49L210.665 398.941L270.324 222.296L274.579 219.834Z" fill="#455A64"/>
<path d="M210.665 398.941L208.559 397.732L268.207 221.076L270.324 222.296L210.665 398.941Z" fill="#263238"/>
<path d="M270.324 364.5L268.207 363.29L208.559 255.528L210.665 256.738L270.324 364.5Z" fill="#263238"/>
<path d="M214.931 254.275L274.579 362.038L270.324 364.5L210.665 256.738L214.931 254.275Z" fill="#455A64"/>
<path d="M193.622 79.6068L176.558 89.4564C162.309 97.6843 150.478 109.519 142.254 123.77C134.03 138.021 129.703 154.186 129.708 170.64V205.103L133.963 207.565L197.878 170.64V82.08L193.622 79.6068Z" fill="#00844B"/>
<path opacity="0.6" d="M193.622 79.6068L176.558 89.4564C162.309 97.6843 150.478 109.519 142.254 123.77C134.03 138.021 129.703 154.186 129.708 170.64V205.103L133.963 207.565L197.878 170.64V82.08L193.622 79.6068Z" fill="white"/>
<path opacity="0.6" d="M136.631 135.27L197.878 170.64V82.08L193.622 79.6176L176.558 89.4672C158.529 99.8739 144.481 115.99 136.631 135.27Z" fill="white"/>
<path d="M133.92 207.533V173.07C133.92 156.62 138.251 140.461 146.477 126.216C154.703 111.97 166.534 100.142 180.781 91.9188L197.878 82.08V170.64L133.92 207.533Z" fill="#00844B"/>
<path opacity="0.7" d="M133.92 207.533V173.07C133.92 156.62 138.251 140.461 146.477 126.216C154.703 111.97 166.534 100.142 180.781 91.9188L197.878 82.08V170.64L133.92 207.533Z" fill="white"/>
<path d="M206.41 244.436L133.963 202.608L197.878 165.715L270.324 207.533L206.41 244.436Z" fill="#00844B"/>
<path opacity="0.8" d="M206.41 244.436L133.963 202.608L197.878 165.715L270.324 207.533L206.41 244.436Z" fill="white"/>
<path d="M206.41 249.361V244.436L133.963 202.608V207.533L206.41 249.361Z" fill="#00844B"/>
<path opacity="0.6" d="M206.41 249.361V244.436L133.963 202.608V207.533L206.41 249.361Z" fill="white"/>
<path opacity="0.3" d="M158.004 204.628L187.834 221.854L226.184 199.714L196.355 182.488L158.004 204.628Z" fill="#00844B"/>
<path d="M158.004 202.878L187.834 220.093L226.184 197.953L196.355 180.738L158.004 202.878Z" fill="#FAFAFA"/>
<path d="M209.131 203.137C209.089 203.147 209.044 203.147 209.002 203.137L204.746 200.675C204.706 200.652 204.672 200.62 204.649 200.58C204.625 200.54 204.613 200.494 204.613 200.448C204.613 200.402 204.625 200.356 204.649 200.316C204.672 200.277 204.706 200.244 204.746 200.221L209.002 197.759C209.041 197.737 209.086 197.726 209.131 197.726C209.176 197.726 209.221 197.737 209.261 197.759L213.581 200.221C213.621 200.244 213.655 200.277 213.679 200.316C213.702 200.356 213.714 200.402 213.714 200.448C213.714 200.494 213.702 200.54 213.679 200.58C213.655 200.62 213.621 200.652 213.581 200.675L209.261 203.137C209.218 203.148 209.174 203.148 209.131 203.137ZM205.394 200.416L209.131 202.576L212.868 200.416L209.131 198.256L205.394 200.416Z" fill="#00844B"/>
<path d="M200.61 208.062H200.48L196.225 205.6C196.185 205.576 196.151 205.544 196.126 205.504C196.102 205.464 196.088 205.419 196.085 205.373C196.084 205.326 196.097 205.279 196.122 205.239C196.147 205.199 196.183 205.167 196.225 205.146L200.48 202.684C200.518 202.657 200.564 202.643 200.61 202.643C200.656 202.643 200.702 202.657 200.74 202.684L205.006 205.146C205.045 205.169 205.078 205.202 205.101 205.242C205.124 205.282 205.136 205.327 205.135 205.373C205.133 205.418 205.12 205.462 205.097 205.502C205.075 205.541 205.043 205.574 205.006 205.6L200.74 208.062C200.697 208.073 200.653 208.073 200.61 208.062ZM196.873 205.34L200.61 207.5L204.347 205.34L200.61 203.18L196.873 205.34Z" fill="#00844B"/>
<path d="M192.089 212.976C192.046 212.986 192.002 212.986 191.959 212.976L187.639 210.514C187.599 210.491 187.567 210.458 187.544 210.418C187.521 210.378 187.509 210.333 187.51 210.287C187.512 210.242 187.525 210.197 187.548 210.158C187.57 210.119 187.601 210.085 187.639 210.06L191.959 207.598C191.999 207.576 192.044 207.564 192.089 207.564C192.134 207.564 192.179 207.576 192.218 207.598L196.538 210.06C196.576 210.085 196.608 210.119 196.63 210.158C196.653 210.197 196.666 210.242 196.668 210.287C196.668 210.333 196.657 210.378 196.634 210.418C196.611 210.458 196.578 210.491 196.538 210.514L192.218 212.976C192.176 212.987 192.131 212.987 192.089 212.976ZM188.352 210.254L192.089 212.414L195.826 210.254L192.089 208.094L188.352 210.254Z" fill="#00844B"/>
<path d="M202.705 197.294C202.615 197.294 202.526 197.271 202.446 197.23L189.659 189.853C189.539 189.781 189.452 189.666 189.416 189.531C189.379 189.396 189.397 189.252 189.464 189.13C189.536 189.01 189.653 188.923 189.788 188.889C189.924 188.854 190.068 188.875 190.188 188.946L202.964 196.322C203.066 196.378 203.145 196.467 203.191 196.573C203.236 196.679 203.244 196.798 203.214 196.91C203.185 197.021 203.118 197.12 203.026 197.19C202.934 197.259 202.821 197.296 202.705 197.294Z" fill="#E0E0E0"/>
<path d="M194.216 202.176C194.125 202.171 194.037 202.145 193.957 202.1L181.181 194.724C181.072 194.649 180.995 194.536 180.965 194.407C180.935 194.278 180.955 194.143 181.02 194.028C181.085 193.913 181.191 193.826 181.316 193.785C181.442 193.744 181.579 193.751 181.699 193.806L194.486 201.193C194.545 201.228 194.597 201.274 194.638 201.328C194.68 201.383 194.71 201.445 194.727 201.511C194.744 201.578 194.748 201.647 194.738 201.714C194.728 201.782 194.705 201.847 194.67 201.906C194.626 201.988 194.561 202.057 194.481 202.105C194.401 202.152 194.31 202.177 194.216 202.176Z" fill="#E0E0E0"/>
<path d="M185.76 207.036C185.666 207.036 185.573 207.014 185.49 206.971L172.714 199.595C172.594 199.523 172.507 199.407 172.471 199.272C172.434 199.137 172.452 198.994 172.519 198.871C172.554 198.812 172.6 198.761 172.654 198.719C172.709 198.678 172.771 198.648 172.837 198.631C172.904 198.614 172.973 198.61 173.04 198.62C173.108 198.63 173.173 198.653 173.232 198.688L186.019 206.064C186.138 206.134 186.225 206.248 186.261 206.381C186.298 206.514 186.281 206.656 186.214 206.777C186.168 206.856 186.102 206.922 186.022 206.968C185.942 207.013 185.852 207.037 185.76 207.036Z" fill="#E0E0E0"/>
<path d="M197.878 82.0692L270.324 123.887L266.058 126.349L193.622 84.5208L197.878 82.0692Z" fill="#00844B"/>
<path opacity="0.8" d="M197.878 82.0692L270.324 123.887L266.058 126.349L193.622 84.5208L197.878 82.0692Z" fill="white"/>
<path d="M193.622 84.5208V168.178L266.058 209.995V126.349L193.622 84.5208Z" fill="#00844B"/>
<path opacity="0.6" d="M193.622 84.5208V168.178L266.058 209.995V126.349L193.622 84.5208Z" fill="white"/>
<path d="M270.324 123.887L253.26 133.736C239.013 141.966 227.182 153.801 218.958 168.052C210.734 182.302 206.407 198.467 206.41 214.92V249.383L210.665 251.834L274.579 214.92V126.36L270.324 123.887Z" fill="#00844B"/>
<path opacity="0.6" d="M270.324 123.887L253.26 133.736C239.013 141.966 227.182 153.801 218.958 168.052C210.734 182.302 206.407 198.467 206.41 214.92V249.383L210.665 251.834L274.579 214.92V126.36L270.324 123.887Z" fill="white"/>
<path opacity="0.6" d="M213.332 179.55L274.579 214.92V126.36L270.324 123.898L253.26 133.747C235.233 144.156 221.185 160.272 213.332 179.55Z" fill="white"/>
<path d="M210.665 251.813V217.35C210.665 200.9 214.996 184.741 223.222 170.495C231.448 156.25 243.279 144.422 257.526 136.199L274.579 126.36V214.92L210.665 251.813Z" fill="#00844B"/>
<path opacity="0.8" d="M210.665 251.813V217.35C210.665 200.9 214.996 184.741 223.222 170.495C231.448 156.25 243.279 144.422 257.526 136.199L274.579 126.36V214.92L210.665 251.813Z" fill="white"/>
<path d="M238.594 180.144L236.66 185.112V187.92L236.369 188.093V185.252L234.425 182.531L234.792 182.326L236.196 184.345L236.52 184.853L236.822 183.989L238.237 180.338L238.594 180.144Z" fill="#455A64"/>
<path d="M241.099 185.468C239.663 186.289 238.939 185.468 238.939 183.308C238.862 182.401 239.02 181.488 239.398 180.66C239.776 179.831 240.362 179.114 241.099 178.578C242.536 177.757 243.259 178.697 243.259 180.738C243.348 181.647 243.195 182.563 242.815 183.394C242.436 184.224 241.844 184.94 241.099 185.468ZM241.099 178.988C240.45 179.468 239.934 180.106 239.601 180.841C239.268 181.577 239.129 182.385 239.198 183.19C239.198 184.831 239.738 185.911 241.099 185.112C241.745 184.649 242.26 184.027 242.593 183.306C242.926 182.584 243.066 181.789 243 180.997C243 179.366 242.482 178.2 241.099 178.978V178.988Z" fill="#455A64"/>
<path d="M248.098 174.668V178.297C248.098 180.371 247.471 181.786 246.132 182.563C244.793 183.341 244.156 182.65 244.156 180.576V176.936L244.436 176.774V180.446C244.436 182.099 244.912 182.909 246.132 182.207C246.725 181.8 247.195 181.239 247.492 180.584C247.789 179.929 247.902 179.206 247.817 178.492V174.83L248.098 174.668Z" fill="#455A64"/>
<path d="M253.087 178.459L252.763 178.654L252.158 177.25C251.888 176.602 251.478 176.461 250.765 176.872L249.437 177.638V180.522L249.156 180.684V174.01L251.197 172.832C252.061 172.336 252.72 172.552 252.72 173.826C252.722 174.284 252.627 174.738 252.441 175.157C252.255 175.576 251.982 175.95 251.64 176.256C252.029 176.256 252.277 176.526 252.439 176.893L253.087 178.459ZM251.219 173.21L249.426 174.29V177.239V177.304L251.154 176.31C251.547 176.076 251.873 175.744 252.1 175.346C252.327 174.949 252.448 174.5 252.45 174.042C252.45 172.94 251.91 172.8 251.219 173.21Z" fill="#455A64"/>
<path d="M225.817 213.343L221.789 200.642L224.867 198.871L226.606 204.995C227.297 207.403 227.578 208.408 227.588 208.462H227.642C227.642 208.386 227.923 207.068 228.604 203.936L230.364 195.728L233.291 194.033L229.262 211.388L225.817 213.343Z" fill="#00844B"/>
<path d="M239.371 190.188C242.827 188.201 245.322 189.983 245.322 194.573C245.322 199.163 242.827 203.828 239.371 205.816C235.915 207.803 233.431 206.032 233.431 201.496C233.431 196.96 235.926 192.24 239.371 190.188ZM239.371 202.403C240.393 201.717 241.226 200.784 241.792 199.691C242.359 198.598 242.64 197.38 242.611 196.15C242.611 193.439 241.25 192.51 239.371 193.579C238.346 194.27 237.511 195.208 236.945 196.306C236.378 197.405 236.099 198.629 236.131 199.865C236.153 202.543 237.503 203.483 239.371 202.403Z" fill="#00844B"/>
<path d="M252.029 186.538V198.212L249.329 199.778V188.093L245.873 190.091V186.743L255.474 181.192V184.55L252.029 186.538Z" fill="#00844B"/>
<path d="M256.878 180.36L265.086 175.619V178.967L259.578 182.142V184.723L263.639 182.38V185.382L259.578 187.726V190.469L265.172 187.229V190.588L256.878 195.372V180.36Z" fill="#00844B"/>
<path d="M233.204 220.482L232.934 220.633V214.801L232.589 216.14L230.936 221.875L229.273 218.03L228.928 217.112V222.966L228.647 223.117V216.443L228.906 216.302L230.688 220.417L230.947 221.076L231.196 220.126L232.988 213.948L233.237 213.797L233.204 220.482Z" fill="#455A64"/>
<path d="M238.399 217.48L238.086 217.663L237.514 216.227L234.706 217.847L234.144 219.931L233.831 220.115L235.991 212.198L236.239 212.047L238.399 217.48ZM237.416 215.903L236.336 213.084L236.207 212.576L236.056 213.235L234.976 217.339V217.404L237.416 215.903Z" fill="#455A64"/>
<path d="M241.92 209.12L240.106 210.2V216.475L239.825 216.637V210.352L238.01 211.432V211.086L241.92 208.764V209.12Z" fill="#455A64"/>
<path d="M246.046 206.744L244.231 207.824V214.099L243.95 214.261V207.932L242.147 209.012V208.656L246.013 206.42L246.046 206.744Z" fill="#455A64"/>
<path d="M250.096 210.73L246.726 212.674V205.999L250.096 204.055V204.412L246.974 206.204V208.926V208.98L249.793 207.349V207.706L246.974 209.336V212.069V212.123L250.096 210.319V210.73Z" fill="#455A64"/>
<path d="M254.988 207.9L254.664 208.094L254.059 206.69C253.789 206.042 253.379 205.902 252.666 206.312L251.338 207.079V209.963L251.057 210.125V203.45L253.098 202.273C253.962 201.776 254.621 201.992 254.621 203.267C254.623 203.725 254.528 204.179 254.342 204.598C254.155 205.017 253.882 205.391 253.541 205.697C253.93 205.697 254.189 205.967 254.34 206.334L254.988 207.9ZM253.12 202.662L251.327 203.688V206.636V206.701L253.055 205.708C253.448 205.473 253.774 205.141 254.001 204.744C254.228 204.347 254.348 203.897 254.351 203.44C254.351 202.381 253.8 202.262 253.12 202.662Z" fill="#455A64"/>
<path d="M257.245 206.68C256.974 206.884 256.65 207.007 256.311 207.034C255.973 207.061 255.634 206.99 255.334 206.831L255.56 206.399C255.815 206.553 256.11 206.629 256.407 206.617C256.705 206.606 256.992 206.507 257.234 206.334C257.671 206.121 258.045 205.797 258.32 205.396C258.594 204.995 258.76 204.529 258.8 204.044C258.8 203.44 258.455 203.126 257.72 203.278L256.802 203.461C255.895 203.623 255.409 203.461 255.409 202.597C255.453 202.023 255.644 201.47 255.964 200.992C256.283 200.513 256.721 200.125 257.234 199.865C257.471 199.682 257.757 199.574 258.055 199.555C258.353 199.536 258.65 199.606 258.908 199.757L258.692 200.178C258.48 200.03 258.228 199.95 257.969 199.95C257.71 199.95 257.457 200.03 257.245 200.178C256.827 200.379 256.466 200.682 256.196 201.06C255.926 201.437 255.755 201.877 255.701 202.338C255.701 203.051 256.198 203.083 256.986 202.932L257.828 202.77C258.779 202.597 259.124 203.029 259.124 203.774C259.105 204.384 258.92 204.977 258.589 205.489C258.258 206.001 257.793 206.412 257.245 206.68Z" fill="#455A64"/>
<path d="M259.254 167.983L260.064 169.7L261.878 169.009L260.561 171.461L260.874 173.686L259.254 173.491L257.634 175.554L257.947 172.973L256.64 172.033L258.444 170.64L259.254 167.983Z" fill="#00844B"/>
<path d="M228.096 185.976L227.286 188.633L225.472 190.026L226.778 190.966L226.476 193.547L228.096 191.484L229.705 191.678L229.403 189.454L230.71 187.002L228.906 187.693L228.096 185.976Z" fill="#00844B"/>
<path d="M362.254 368.593L320.792 494.802L316.71 497.167L358.171 370.948L362.254 368.593Z" fill="#455A64"/>
<path d="M316.71 497.167L314.69 496.001L356.141 369.792L358.171 370.948L316.71 497.167Z" fill="#263238"/>
<path d="M373.918 464.13L371.898 462.974L331.042 385.128L333.072 386.294L373.918 464.13Z" fill="#263238"/>
<path d="M337.154 383.929L378.011 461.776L373.928 464.13L333.072 386.284L337.154 383.929Z" fill="#455A64"/>
<path d="M305.057 335.567L263.596 461.776L259.513 464.13L300.974 337.921L305.057 335.567Z" fill="#455A64"/>
<path d="M259.513 464.13L257.494 462.974L298.955 336.755L300.974 337.921L259.513 464.13Z" fill="#263238"/>
<path d="M316.721 431.104L314.701 429.937L273.845 352.091L275.875 353.257L316.721 431.104Z" fill="#263238"/>
<path d="M279.958 350.892L320.814 428.738L316.721 431.104L275.875 353.257L279.958 350.892Z" fill="#455A64"/>
<path d="M312.638 400.442L247.255 362.696L316.721 322.585L382.115 360.331L312.638 400.442Z" fill="#455A64"/>
<path d="M312.638 405.162V400.442L382.115 360.331V365.051L312.638 405.162Z" fill="#37474F"/>
<path d="M312.638 405.162V400.442L247.255 362.696L247.277 367.394L312.638 405.162Z" fill="#263238"/>
<path d="M312.671 395.723V339.109L256.986 307.066V363.679L312.671 395.723Z" fill="#00844B"/>
<path d="M312.671 339.109L372.395 304.603V361.228L312.671 395.723V339.109Z" fill="#00844B"/>
<path opacity="0.15" d="M312.671 339.109L372.395 304.603V361.228L312.671 395.723V339.109Z" fill="white"/>
<path d="M312.671 339.109L255.42 306.158L316.71 270.745L373.95 303.696L312.671 339.109Z" fill="#00844B"/>
<path opacity="0.3" d="M312.671 339.109L255.42 306.158L316.71 270.745L373.95 303.696L312.671 339.109Z" fill="white"/>
<path d="M312.671 339.109V349.218L255.42 316.278V306.158L312.671 339.109Z" fill="#00844B"/>
<path d="M373.95 303.696L312.671 339.109V349.218L373.95 313.816V303.696Z" fill="#00844B"/>
<path opacity="0.15" d="M373.95 303.696L312.671 339.109V349.218L373.95 313.816V303.696Z" fill="white"/>
<path opacity="0.1" d="M257.04 317.174V319.399L312.725 351.443V349.218L257.04 317.174ZM372.449 314.712L312.725 349.272V351.497L372.449 316.937V314.712Z" fill="black"/>
<path d="M296.287 310.792L304.463 315.511L333.072 298.987L324.896 294.278L296.287 310.792Z" fill="#00844B"/>
<path opacity="0.2" d="M331.031 300.175L333.072 298.987L324.896 294.278L324.907 296.654L331.031 300.175Z" fill="black"/>
<path opacity="0.1" d="M298.339 311.969L324.896 296.633V294.278L296.287 310.792L298.339 311.969Z" fill="black"/>
<path d="M325.404 371.876L321.548 359.694L324.497 357.998L326.16 363.863C326.83 366.174 327.089 367.103 327.1 367.189H327.154C327.154 367.114 327.424 365.85 328.072 362.869L329.756 354.996L332.564 353.376L328.709 370.019L325.404 371.876Z" fill="#FAFAFA"/>
<path d="M338.407 349.672C341.712 347.771 344.099 349.477 344.099 353.884C344.099 358.29 341.712 362.75 338.407 364.684C335.102 366.617 332.705 364.878 332.705 360.482C332.705 356.087 335.102 351.583 338.407 349.672ZM338.407 361.39C339.385 360.728 340.18 359.832 340.72 358.782C341.259 357.733 341.526 356.565 341.496 355.385C341.496 352.793 340.2 351.896 338.407 352.922C337.427 353.586 336.631 354.487 336.091 355.54C335.551 356.593 335.285 357.766 335.318 358.949C335.318 361.519 336.614 362.426 338.407 361.39Z" fill="#FAFAFA"/>
<path d="M350.546 346.162V357.361L347.944 358.862V347.663L344.65 349.574V346.334L353.84 341.021V344.261L350.546 346.162Z" fill="#FAFAFA"/>
<path d="M355.19 340.276L363.064 335.729V338.969L357.782 342.014V344.488L361.67 342.241V345.125L357.782 347.371V350.006L363.182 346.907V350.147L355.234 354.737L355.19 340.276Z" fill="#FAFAFA"/>
<path d="M332.132 295.618L329.562 300.974L304.463 315.511L299.225 312.487L313.286 282.798L332.132 295.618Z" fill="#FAFAFA"/>
<path d="M461.16 381.683C461.657 384.124 462.575 386.942 463.32 391.921C464.065 396.9 462.91 397.105 466.495 409.59C468.655 417.074 468.256 420.055 463.255 426.373C457.855 433.145 452.25 431.773 448.578 424.278C445.446 417.874 445.63 414.893 445.619 408.251C445.608 401.609 445.543 399.676 445.208 394.405C444.917 389.761 445.338 386.586 445.025 383.033L461.16 381.683Z" fill="#37474F"/>
<path d="M462.823 399.881C461.819 393.401 461.581 386.78 461.214 382.428C460.393 372.708 462.564 353.43 461.041 338.774L433.922 336.301C434.83 342.014 442.325 367.848 445.046 383.443C445.046 383.443 446.126 404.611 447.606 413.932C447.67 414.22 447.797 414.49 447.979 414.723C448.16 414.955 448.391 415.145 448.655 415.277C448.918 415.41 449.208 415.482 449.503 415.488C449.798 415.494 450.091 415.435 450.36 415.314C454.266 413.749 458.573 413.488 462.64 414.569C462.924 414.676 463.23 414.715 463.532 414.682C463.835 414.649 464.125 414.545 464.38 414.379C464.634 414.213 464.846 413.989 464.998 413.725C465.15 413.462 465.237 413.166 465.253 412.862C465.199 409.417 463.579 404.708 462.823 399.881Z" fill="#B16668"/>
<path d="M385.02 331.063C386.024 351.043 386.23 366.282 386.014 374.89C386.023 379.146 385.22 383.365 383.648 387.32C382.212 390.971 379.717 396.241 377.644 398.563C377.644 398.563 370.958 405.724 372.244 406.393C373.529 407.063 387.31 407.916 392.764 406.393C398.218 404.87 400.324 400.28 402.397 391.91C404.471 383.54 406.328 371.282 406.328 371.282C406.087 370.83 405.909 370.347 405.799 369.846C405.14 367.394 407.754 355.126 408.467 349.024L385.02 331.063Z" fill="#B16668"/>
<path d="M411.232 383.616C411.016 385.69 409.45 388.141 408.92 391.381C408.299 395.073 408.046 398.817 408.164 402.559C408.283 407.138 408.294 407.786 408.294 407.786H406.879C406.879 407.786 406.706 401.177 406.642 398.272C406.577 395.366 405.173 392.818 403.78 392.537C403.78 392.569 404.363 383.789 411.232 383.616Z" fill="#263238"/>
<path d="M406.145 370.148C406.966 372.492 409.082 375.548 410.303 377.816C411.025 379.119 411.47 380.557 411.61 382.039C411.598 382.828 411.424 383.606 411.099 384.325C410.774 385.044 410.304 385.689 409.72 386.219C408.586 387.299 407.765 388.195 406.404 389.459C403.564 392.072 402.376 394.373 400.486 400.432C399.406 404.039 397.559 407.311 394.362 409.072C391.867 410.432 385.02 412.744 376.607 412.387C369.619 412.096 366.887 409.05 369.598 406.426C372.308 403.801 376.834 399.146 377.644 398.596C380.184 398.606 382.698 399.1 385.052 400.054C388.919 401.825 390.107 404.125 394.254 402.214C398.012 400.442 400 393.973 400.324 383.681C400.68 372.395 406.145 370.148 406.145 370.148Z" fill="#37474F"/>
<path d="M442.238 195.307C442.724 197.856 443.264 200.232 444.193 201.496C449.852 209.228 455.63 218.581 456.754 233.053C459.475 267.97 459.594 301.687 459.594 301.687C459.875 304.765 463.568 311.407 463.104 330.016C462.748 344.056 461.722 365.515 461.722 365.515C461.722 365.515 449.388 370.526 440.618 367.276C437 353.927 431.212 322.164 427.658 306.871C423.889 290.768 421.297 271.328 421.297 271.328L413.554 301.568C414.746 308.591 415.051 315.735 414.461 322.834C413.467 332.219 407.441 360.342 407.441 360.342C407.441 360.342 392.796 363.485 385.225 358.322C385.225 358.322 383.389 311.591 383.249 301.277C383.108 290.963 381.499 234.122 387.644 207.112C387.925 205.859 388.778 197.316 388.778 197.316C396.176 203.332 432.454 202.014 442.238 195.307Z" fill="#37474F"/>
<path d="M461.959 360.342C458.168 363.874 443.891 365.008 439.279 362.61L441.126 370.17C444.659 371.574 448.485 372.078 452.261 371.639C458.968 370.98 461.732 367.988 461.732 367.988L461.959 360.342Z" fill="#455A64"/>
<path d="M408.478 355.676C404.525 357.037 389.21 356.108 384.847 353.516L385.117 359.78C389.139 361.505 393.393 362.626 397.742 363.107C404.417 363.733 407.268 361.832 407.268 361.832L408.478 355.676Z" fill="#455A64"/>
<path d="M421.265 271.328L416.48 236.822C413.121 236.901 409.788 236.203 406.742 234.783C403.697 233.363 401.019 231.26 398.92 228.636C398.92 228.636 398.747 237.276 412.96 241.067L418.576 272.862L413.489 301.547L421.265 271.328Z" fill="#263238"/>
<path d="M356.562 172.584C352.555 169.571 349.51 167.324 344.876 159.926C343.585 158.176 342.075 156.597 340.384 155.228C338.775 153.698 337.454 151.891 336.485 149.893C336.064 148.889 333.504 149.969 334.001 153.446C334.379 156.028 335.945 158.382 336.571 159.851C335.21 159.851 333.029 159.667 330.091 159.851C327.154 160.034 321.268 159.721 322.348 163.091C322.585 163.847 323.201 164.484 323.222 165.251C323.197 165.616 323.135 165.978 323.039 166.331C322.909 167.036 322.971 167.764 323.22 168.437C323.469 169.11 323.895 169.703 324.454 170.154C324.732 170.321 324.971 170.546 325.156 170.813C325.458 171.396 325.231 172.109 325.361 172.724C325.527 173.429 325.882 174.074 326.387 174.593C327.11 175.37 327.348 175.1 328.072 175.878C328.547 176.386 328.644 177.509 329.756 178.254C330.588 178.805 332.586 178.87 334.714 178.837C336.841 178.805 338.051 179.507 340.88 179.42C343.105 179.356 345.2 180.608 348.905 184.41C357.199 192.316 358.258 194.897 365.699 200.934C366.356 201.477 367.041 201.986 367.751 202.457C374.792 207.306 377.579 203.537 383.141 193.741C389.977 181.699 393.52 174.874 393.52 174.874L404.492 142.16C397.732 142.927 389.783 150.574 383.778 159.246C380.959 163.318 369.284 181.246 369.284 181.246C365.31 178.772 360.58 175.597 356.562 172.584Z" fill="#B16668"/>
<path d="M332.942 161.849C333.239 161.931 333.528 162.04 333.806 162.173C334.094 162.313 334.357 162.499 334.584 162.724H334.498C335.85 162.462 337.252 162.68 338.461 163.339C338.764 163.524 339.034 163.758 339.26 164.03C339.515 164.331 339.646 164.717 339.628 165.11C339.616 165.319 339.549 165.52 339.433 165.694C339.286 165.855 339.094 165.968 338.882 166.018C338.537 166.093 338.224 166.136 337.9 166.201C337.262 166.331 336.636 166.547 335.977 166.698C335.312 166.85 334.627 166.901 333.947 166.849C332.612 166.751 331.295 166.487 330.026 166.061C330.673 166.211 331.33 166.312 331.992 166.363C332.651 166.439 333.299 166.514 333.958 166.525C334.604 166.534 335.25 166.465 335.88 166.32C336.517 166.169 337.144 165.942 337.802 165.791C338.137 165.715 338.483 165.661 338.774 165.586C339.066 165.51 339.152 165.402 339.196 165.078C339.25 164.538 338.764 163.998 338.245 163.696C337.116 163.051 335.811 162.782 334.519 162.929H334.465C334.274 162.703 334.043 162.513 333.785 162.367C333.519 162.171 333.238 161.997 332.942 161.849Z" fill="#9A4A4D"/>
<path d="M337.565 166.018C337.848 165.924 338.154 165.924 338.436 166.02C338.719 166.115 338.963 166.3 339.131 166.547C339.295 166.814 339.376 167.124 339.365 167.437C339.353 167.75 339.249 168.053 339.066 168.307C338.502 169.361 337.622 170.211 336.55 170.737C335.977 170.914 335.377 170.987 334.778 170.953C334.202 170.953 333.63 170.932 333.061 170.888C331.916 170.813 330.782 170.737 329.638 170.608C330.782 170.554 331.927 170.543 333.072 170.532C334.185 170.626 335.307 170.553 336.398 170.316C336.895 170.095 337.348 169.788 337.738 169.409C338.137 169.02 338.499 168.593 338.818 168.134C338.987 167.931 339.092 167.682 339.121 167.419C339.15 167.156 339.101 166.89 338.98 166.655C338.845 166.409 338.635 166.214 338.379 166.099C338.124 165.984 337.838 165.955 337.565 166.018Z" fill="#9A4A4D"/>
<path d="M337.068 170.208C337.314 170.098 337.581 170.041 337.851 170.041C338.121 170.041 338.388 170.098 338.634 170.208C338.764 170.275 338.878 170.37 338.967 170.485C339.057 170.601 339.12 170.735 339.152 170.878C339.201 171.156 339.201 171.441 339.152 171.72C338.965 172.237 338.649 172.698 338.234 173.059C337.877 173.484 337.426 173.821 336.917 174.042C336.387 174.144 335.845 174.173 335.308 174.128C334.801 174.16 334.296 174.218 333.796 174.301C332.78 174.463 331.754 174.636 330.728 174.776C331.722 174.452 332.716 174.193 333.731 173.966C334.245 173.839 334.769 173.756 335.297 173.718C335.793 173.745 336.29 173.709 336.776 173.61C337.222 173.423 337.621 173.139 337.943 172.778C338.313 172.463 338.611 172.073 338.818 171.634C338.861 171.402 338.861 171.164 338.818 170.932C338.803 170.82 338.764 170.714 338.702 170.62C338.64 170.527 338.558 170.448 338.461 170.392C338.038 170.154 337.539 170.088 337.068 170.208Z" fill="#9A4A4D"/>
<path d="M337.284 173.599C337.391 173.64 337.488 173.702 337.57 173.782C337.652 173.862 337.716 173.958 337.759 174.064C337.844 174.284 337.87 174.522 337.835 174.755C337.739 175.182 337.591 175.596 337.392 175.986C337.283 176.18 337.164 176.367 337.036 176.548C336.902 176.737 336.729 176.896 336.528 177.012C336.167 177.243 335.779 177.428 335.372 177.563L336.323 176.731C336.468 176.61 336.596 176.468 336.701 176.31C336.808 176.14 336.906 175.963 336.992 175.781C337.188 175.435 337.354 175.074 337.489 174.701C337.571 174.518 337.596 174.315 337.559 174.118C337.522 173.921 337.426 173.74 337.284 173.599Z" fill="#9A4A4D"/>
<path d="M339.412 165.056C339.239 166.947 339.813 168.83 341.013 170.302C342.212 171.774 343.94 172.717 345.827 172.93C344.443 172.973 343.07 172.672 341.831 172.055C340.804 171.576 339.905 170.862 339.206 169.97L339.001 170.834C338.731 170.381 338.602 169.992 337.37 170.111C337.923 169.598 338.41 169.017 338.818 168.383C339.185 167.67 339.714 166.547 338.202 165.877C338.517 165.839 338.826 165.759 339.12 165.64C339.234 165.598 339.327 165.514 339.382 165.406C339.436 165.298 339.447 165.173 339.412 165.056Z" fill="#9A4A4D"/>
<path d="M405.41 141.221C395.842 142.97 392.45 143.046 382.579 159.03C376.499 168.847 369.112 180.824 369.112 180.824L362.027 176.504C363.344 177.833 365.926 184.669 364.187 188.881C363.07 191.463 361.088 193.575 358.582 194.854C361.007 197.384 363.602 199.748 366.347 201.928C370.192 204.854 372.233 205.297 374.566 204.606C376.898 203.915 379.177 201.366 384.836 194.659C390.658 187.758 397.472 177.595 397.472 177.595L405.41 141.221Z" fill="#00844B"/>
<path opacity="0.55" d="M405.41 141.221C395.842 142.97 392.45 143.046 382.579 159.03C376.499 168.847 369.112 180.824 369.112 180.824L362.027 176.504C363.344 177.833 365.926 184.669 364.187 188.881C363.07 191.463 361.088 193.575 358.582 194.854C361.007 197.384 363.602 199.748 366.347 201.928C370.192 204.854 372.233 205.297 374.566 204.606C376.898 203.915 379.177 201.366 384.836 194.659C390.658 187.758 397.472 177.595 397.472 177.595L405.41 141.221Z" fill="white"/>
<path opacity="0.35" d="M369.112 180.824C372.881 183.125 376.499 188.006 377.136 190.89C377.124 188.465 376.496 186.084 375.311 183.968C374.127 181.852 372.425 180.072 370.364 178.794L369.112 180.824Z" fill="#00844B"/>
<path opacity="0.35" d="M362.102 198.158C362.736 197.825 363.333 197.426 363.884 196.97C365.014 196.074 365.966 194.976 366.692 193.73C368.055 191.303 368.579 188.494 368.183 185.738C368.183 185.598 368.312 185.598 368.345 185.738C369.063 188.674 368.606 191.775 367.07 194.378C366.288 195.678 365.274 196.824 364.079 197.759C363.592 198.133 363.08 198.472 362.545 198.774L362.016 198.299L362.102 198.158Z" fill="#00844B"/>
<path d="M426.395 137.322L441.688 142.074C444.312 142.97 454.237 149.029 450.77 163.955C449.626 168.901 448.06 175.835 446.645 182.758C445.565 188.05 449.528 198.234 452.725 214.456C452.725 214.456 439.614 224.888 413.554 221.951C393.671 219.704 386.197 211.151 386.197 211.151C386.003 195.674 389.286 185.879 390.755 179.982C390.755 179.982 388.53 177.206 388.4 170.91C388.282 164.311 392.245 158.533 398.12 151.06C401.281 146.969 404.906 143.258 408.92 140L426.395 137.322Z" fill="#FAFAFA"/>
<path d="M392.31 118.681C391.651 116.521 389.167 116.284 388.638 113.281C388.109 110.279 389.718 108.335 392.116 107.017C394.513 105.7 395.021 103.313 394.535 98.3772C394.049 93.4416 397.57 90.4716 401.641 89.8668C403.65 89.5752 405.961 89.7804 407.398 88.3116C407.948 87.6087 408.403 86.835 408.748 86.0112C410.692 82.4256 414.299 80.8596 419.126 80.892C421.294 80.8652 423.445 81.269 425.455 82.08C427.767 82.9614 429.852 84.3489 431.557 86.1408C434.203 85.7196 439.182 86.292 441.882 88.668C443.059 89.5041 444.056 90.5675 444.815 91.7955C445.573 93.0235 446.078 94.3912 446.299 95.8176C446.753 98.7444 446.483 100.408 447.746 101.995C450.317 105.235 453.524 105.235 454.982 107.957C457.056 111.845 451.948 115.182 454.55 119.837C455.091 120.748 455.42 121.77 455.513 122.826C455.605 123.882 455.459 124.945 455.084 125.937C454.71 126.929 454.117 127.823 453.35 128.555C452.582 129.286 451.66 129.835 450.652 130.162C448.384 131.026 446.44 129.859 443.2 131.069C439.96 132.278 439.83 134.752 435.704 136.469C432.335 137.819 429.451 135.389 426.719 135.032C422.982 134.6 424.181 135.832 420.498 133.466C419.234 132.656 418.478 131.209 417.204 130.41C413.165 127.991 411.804 129.33 406.944 131.058C405.67 131.522 401.436 132.7 398.552 129.503C396.828 127.408 395.936 124.751 396.047 122.04C395.226 124.74 389.027 124.686 388.4 120.398C388.677 120.834 389.101 121.156 389.595 121.306C390.088 121.457 390.62 121.425 391.092 121.218C391.565 121.01 391.947 120.64 392.171 120.175C392.394 119.71 392.444 119.18 392.31 118.681Z" fill="#263238"/>
<path d="M432.238 134.028C432.238 131.566 432.734 125.302 432.734 125.302C433.642 127.613 437.832 127.699 439.884 124.848C442.476 121.241 442.465 116.953 440.705 114.34C438.75 111.445 434.106 111.37 432.065 115.852C428.998 116.424 427.842 111.726 430.358 107.417C430.412 97.1244 416.426 100.591 413.608 91.3464C411.19 91.7913 408.906 92.7851 406.933 94.2511C404.959 95.7172 403.349 97.6164 402.224 99.8028C401.144 102.092 400.961 103.496 401.22 108.13C401.317 109.933 400.075 112.028 399.719 114.415C398.066 125.356 401.285 129.719 404.87 131.846C406.782 132.926 409.266 133.715 413.834 134.006C413.834 134.006 413.748 136.058 413.662 137.419C413.575 138.78 413.424 139.374 411.782 139.579C411.221 139.655 410.594 139.698 410.594 139.698C410.594 139.698 403.034 146.675 412.992 148.5C427.853 151.222 433.793 142.16 434.452 139.86C432.162 139.385 432.13 138.154 432.238 134.028Z" fill="#B16668"/>
<path d="M418.262 122.04L412.776 123.509C412.849 123.88 412.998 124.233 413.212 124.546C413.427 124.858 413.702 125.124 414.023 125.326C414.343 125.528 414.702 125.663 415.076 125.722C415.45 125.781 415.832 125.763 416.2 125.669C416.952 125.457 417.59 124.957 417.976 124.278C418.362 123.599 418.465 122.795 418.262 122.04Z" fill="#9A4A4D"/>
<path d="M417.863 123.25C417.142 123.196 416.426 123.394 415.835 123.809C415.244 124.225 414.816 124.832 414.623 125.528C415.136 125.691 415.687 125.691 416.2 125.528C416.722 125.38 417.192 125.089 417.558 124.688C417.924 124.288 418.172 123.794 418.273 123.26C418.133 123.293 417.96 123.26 417.863 123.25Z" fill="#F28F8F"/>
<path d="M403.974 105.462L408.002 103.788C407.904 103.523 407.753 103.282 407.558 103.077C407.363 102.873 407.129 102.71 406.869 102.599C406.61 102.488 406.33 102.431 406.048 102.431C405.766 102.431 405.486 102.489 405.227 102.6C404.694 102.83 404.269 103.253 404.036 103.784C403.804 104.315 403.782 104.915 403.974 105.462Z" fill="#263238"/>
<path d="M423.576 106.801L419.666 104.76C419.794 104.503 419.971 104.274 420.187 104.086C420.404 103.898 420.656 103.755 420.928 103.666C421.201 103.576 421.488 103.542 421.774 103.565C422.06 103.588 422.338 103.667 422.593 103.799C423.104 104.085 423.488 104.552 423.67 105.108C423.852 105.664 423.819 106.269 423.576 106.801Z" fill="#263238"/>
<path d="M413.813 133.985C420.757 133.618 428.576 131.166 431.093 127.397C431.093 127.397 430.078 131.231 427.259 132.851C423.119 135.117 418.467 136.285 413.748 136.242L413.813 133.985Z" fill="#9A4A4D"/>
<path d="M421.265 111.488C421.267 111.854 421.16 112.212 420.959 112.517C420.757 112.822 420.47 113.061 420.132 113.202C419.795 113.344 419.423 113.382 419.064 113.312C418.705 113.242 418.375 113.067 418.116 112.809C417.857 112.551 417.68 112.222 417.608 111.863C417.535 111.505 417.571 111.133 417.711 110.795C417.85 110.457 418.087 110.168 418.391 109.964C418.695 109.761 419.052 109.652 419.418 109.652C419.906 109.652 420.374 109.845 420.72 110.189C421.066 110.534 421.262 111 421.265 111.488Z" fill="#263238"/>
<path d="M408.002 110.635C408.002 111.001 407.894 111.358 407.69 111.662C407.487 111.966 407.198 112.203 406.86 112.342C406.522 112.482 406.15 112.518 405.791 112.446C405.433 112.374 405.104 112.197 404.846 111.937C404.588 111.678 404.413 111.348 404.343 110.989C404.273 110.63 404.311 110.258 404.452 109.921C404.594 109.584 404.832 109.296 405.137 109.094C405.443 108.893 405.801 108.786 406.166 108.788C406.408 108.788 406.648 108.836 406.872 108.929C407.095 109.022 407.298 109.158 407.468 109.33C407.639 109.502 407.774 109.705 407.866 109.929C407.957 110.153 408.004 110.393 408.002 110.635Z" fill="#263238"/>
<path d="M405.853 117.85L411.793 120.366L413.359 108.518L405.853 117.85Z" fill="#9A4A4D"/>
<path d="M437.486 123.757C437.471 123.956 437.418 124.149 437.328 124.327C437.238 124.505 437.114 124.663 436.963 124.793C436.812 124.923 436.637 125.022 436.448 125.084C436.259 125.146 436.06 125.171 435.861 125.156C435.662 125.141 435.469 125.087 435.291 124.997C435.113 124.908 434.955 124.784 434.825 124.633C434.695 124.482 434.596 124.307 434.534 124.118C434.472 123.929 434.447 123.729 434.462 123.53C434.492 123.129 434.681 122.757 434.985 122.494C435.29 122.232 435.687 122.102 436.088 122.132C436.489 122.162 436.861 122.35 437.124 122.655C437.386 122.96 437.516 123.356 437.486 123.757Z" fill="#EBEBEB"/>
<path d="M413.521 138.348C412.808 138.607 408.035 140.119 405.41 141.221C399.159 146.27 393.931 152.469 390.01 159.484C387.266 164.7 385.841 169.204 385.69 177.714C385.571 185.112 384.674 207.09 383.206 219.316C384.005 222.178 391.997 225.58 391.997 225.58C392.407 214.585 392.602 180.133 394.978 168.448C397.796 154.58 410.216 141.912 413.111 139.925L413.521 138.348Z" fill="#00844B"/>
<path d="M432.248 137.495V139.763C425.38 157.626 426.73 165.812 427.604 177.563C429.689 205.643 433.004 229.9 433.004 229.9C433.004 229.9 452.617 230.105 459.605 220.655C459.605 220.655 453.319 206.464 450.965 192.132C449.572 183.632 453.535 166.212 452.045 153.911C451.44 148.77 449.496 143.64 445.64 142.43C442.454 141.426 439.69 140.616 439.69 140.616L432.248 137.495Z" fill="#00844B"/>
<path d="M456.635 235.796C459.745 236.682 463.709 232.816 464.8 231.476C465.89 230.137 464.486 226.94 463.828 224.251C463.169 221.562 463.828 217.015 460.501 218.29C457.175 219.564 450.166 228.55 456.635 235.796Z" fill="#9A4A4D"/>
<path d="M446.267 143.111C456.332 145.206 457.315 144.904 462.067 154.462C467.608 165.586 475.448 183.751 477.425 187.942C479.401 192.132 481.313 195.275 475.988 201.809C471.247 207.63 457.24 224.392 455.155 226.789C453.319 228.949 455.382 235.17 461.7 234.263C461.7 234.263 456.894 238.518 454.248 238.043C451.969 237.643 446.213 234.133 442.919 227.243C440.845 222.923 442.584 219.456 445.738 214.596C449.507 208.796 458.838 193.277 458.838 193.277L444.96 165.553C444.96 165.553 438.912 150.779 446.267 143.111Z" fill="#B16668"/>
<path d="M445.662 142.43C443.221 144.86 439.344 153.976 444.744 167.152L458.341 193.32L452.282 203.04C452.282 203.04 456.602 208.667 460.242 211.237C461.232 211.983 462.367 212.514 463.574 212.795C464.781 213.076 466.034 213.101 467.251 212.868C467.251 212.868 475.038 204.228 477.792 200.437C480.546 196.646 481.032 195.556 477.522 187.045C474.131 178.837 463.352 153.846 461.041 150.023C458.73 146.2 455.76 143.64 445.662 142.43Z" fill="#00844B"/>
<path opacity="0.55" d="M445.662 142.43C443.221 144.86 439.344 153.976 444.744 167.152L458.341 193.32L452.282 203.04C452.282 203.04 456.602 208.667 460.242 211.237C461.232 211.983 462.367 212.514 463.574 212.795C464.781 213.076 466.034 213.101 467.251 212.868C467.251 212.868 475.038 204.228 477.792 200.437C480.546 196.646 481.032 195.556 477.522 187.045C474.131 178.837 463.352 153.846 461.041 150.023C458.73 146.2 455.76 143.64 445.662 142.43Z" fill="white"/>
<path opacity="0.35" d="M461.16 203.936C460.141 203.155 459.184 202.296 458.298 201.366C457.426 200.467 456.628 199.499 455.911 198.472C455.792 198.299 455.652 198.05 455.544 197.867L455.08 198.601C455.165 198.72 455.244 198.842 455.317 198.968C456.04 199.988 456.834 200.955 457.693 201.863C458.57 202.788 459.519 203.64 460.534 204.412C461.589 205.292 462.764 206.019 464.022 206.572C464.368 206.701 464.389 206.226 464.173 206.064C463.136 205.308 462.089 204.682 461.16 203.936Z" fill="#00844B"/>
<path d="M174.15 414.882C174.992 414.806 175.014 416.858 174.485 417.841C172.994 420.671 168.826 423.716 162.724 425.066C156.622 426.416 144.688 424.807 141.124 424.667C137.56 424.526 131.263 426.373 127.656 426.946C121.09 428.026 116.597 426.19 114.448 424.084C114.094 423.656 113.832 423.16 113.678 422.627C113.524 422.094 113.481 421.534 113.551 420.984C113.616 418.489 113.832 417.982 114.113 418.003L174.15 414.882Z" fill="#37474F"/>
<path d="M114.772 410.724C114.141 413.679 113.945 416.709 114.188 419.72C114.955 421.578 116.986 422.636 118.606 423.144C122.926 424.494 127.116 424.224 131.836 423.23C134.876 422.451 138.007 422.087 141.145 422.15C144.882 422.356 153.122 423.23 156.87 423.23C160.367 423.283 163.838 422.614 167.065 421.265C169.538 420.109 173.286 417.571 174.128 415.649C174.938 411.167 174.474 408.488 171.893 407.009C169.312 405.529 165.24 405.076 159.84 404.665C158.231 404.546 156.19 404.449 155.326 404.352C152.086 403.996 149.008 403.758 146.534 403.596C144.427 403.614 142.342 403.16 140.432 402.268C139.553 401.874 138.841 401.182 138.424 400.313C137.905 399.168 137.916 397.494 136.912 397.397C136.912 397.397 118.444 400.54 116.953 400.691C115.247 400.864 116.37 403.337 114.772 410.724Z" fill="#455A64"/>
<path d="M156.784 404.19C157.342 404.628 157.805 405.176 158.144 405.799C158.517 406.48 158.8 407.206 158.987 407.959C159.235 408.899 158.069 409.039 157.615 407.959C157.277 407.058 156.835 406.198 156.298 405.4C155.912 404.841 155.342 404.436 154.688 404.255L153.76 404.158C154.008 403.488 156.06 403.715 156.784 404.19Z" fill="#FAFAFA"/>
<path d="M148.446 403.218C148.757 403.175 149.073 403.199 149.374 403.291C149.674 403.382 149.951 403.538 150.185 403.747C150.791 404.262 151.243 404.935 151.492 405.691C151.814 406.599 152.063 407.53 152.237 408.478C152.302 409.082 150.876 409.061 150.725 408.402C150.574 407.743 150.25 406.544 149.99 405.864C149.828 405.443 149.094 403.855 148.111 403.704H147.668C147.668 403.488 147.938 403.348 148.133 403.304C148.234 403.265 148.339 403.236 148.446 403.218Z" fill="#FAFAFA"/>
<path d="M143.554 403.067C143.974 403.147 144.355 403.368 144.634 403.693C144.967 404.138 145.226 404.634 145.4 405.162C145.695 406.128 145.841 407.133 145.832 408.143C145.832 408.92 144.428 408.715 144.385 408.143C144.234 406.501 144.234 405.421 143.446 404.222C143.151 403.7 142.731 403.259 142.225 402.937C142.225 402.797 142.474 402.775 142.614 402.808C142.932 402.877 143.245 402.964 143.554 403.067Z" fill="#FAFAFA"/>
<path d="M114.88 380.797C114.88 380.797 116.478 397.786 116.878 401.706C117.007 402.959 119.383 403.466 120.604 403.996C122.128 404.564 123.548 405.382 124.805 406.415C127.904 409.493 130.205 410.216 132.116 404.816C132.179 404.555 132.296 404.311 132.46 404.099C132.625 403.887 132.832 403.712 133.069 403.586C133.306 403.461 133.567 403.387 133.835 403.37C134.103 403.353 134.371 403.393 134.622 403.488C135.663 403.844 136.763 403.998 137.862 403.942C138.024 403.834 137.927 403.585 137.862 403.423C137.381 402.824 137.035 402.127 136.849 401.382C136.662 400.636 136.639 399.859 136.782 399.103C137.311 392.148 137.603 385.182 138.002 378.216L114.88 380.797Z" fill="#FFBDA7"/>
<path d="M55.3932 368.334C57.5532 364.824 58.2768 358.301 59.8536 346.183L79.8228 356.476L71.28 377.449C70.9275 378.359 70.6565 379.299 70.47 380.257C68.04 383.702 55.3932 368.334 55.3932 368.334Z" fill="#FFBDA7"/>
<path d="M48.762 375.84C48.762 375.635 48.6756 373.972 48.762 373.777C49.2264 371.995 50.328 371.498 51.7428 370.537C53.1615 369.581 54.4628 368.46 55.62 367.2C56.0952 366.541 56.1816 366.206 56.916 365.904C58.1688 365.396 60.156 365.353 62.6616 366.66C66.7332 368.82 67.9752 371.369 67.7376 374.155C67.5648 376.315 67.3812 379.102 69.2604 380.365C70.038 380.894 71.2692 377.492 71.2692 377.492C72.4248 379.436 70.8048 382.115 69.9516 386.035C69.4632 388.204 69.4264 390.45 69.8436 392.634C70.254 396.079 70.7292 396.058 72.5544 396.306C74.1312 396.511 78.6024 396.209 81.3132 398.11C85.0608 400.723 84.0564 404.201 84.0564 404.201C83.5704 405.529 79.4988 411.944 64.6164 409.547C60.2964 408.856 51.2244 402.073 51.3648 401.436C51.4402 400.787 51.4402 400.131 51.3648 399.481C51.3648 397.969 51.246 396.446 51.1812 394.924C51.2288 393.479 51.142 392.032 50.922 390.604C50.651 389.423 50.4669 388.225 50.3712 387.018C50.0904 383.962 49.7988 380.905 49.518 377.849C49.41 376.92 48.6 376.693 48.762 375.84Z" fill="#455A64"/>
<path d="M46.8828 375.224C45.414 376.639 46.3104 380.765 48.276 385.711C49.1508 387.871 50.7708 391.673 50.2956 395.69C49.8204 399.708 49.734 401.598 50.7708 403.488C52.3908 406.426 61.0416 410.195 66.1392 411.372C63.0549 407.054 61.2575 401.95 60.9552 396.652C60.4368 387.785 59.7672 382.072 55.7172 378.151C50.5872 373.172 46.8828 375.224 46.8828 375.224Z" fill="black"/>
<path d="M84.0564 404.158C84.0564 404.158 81.0756 409.752 69.5628 409.558C65.0268 409.482 62.6076 407.279 62.4888 400.388C62.3592 392.083 61.6896 383.702 59.0112 379.588C56.3328 375.473 52.0451 373.464 48.7296 373.756C47.953 373.993 47.2939 374.513 46.8828 375.214C46.8828 375.214 50.1984 374.134 55.3716 378.454C59.184 381.618 60.21 388.228 60.156 396.436C60.156 399.967 59.9183 403.996 60.9551 406.652C61.4314 407.83 62.1766 408.88 63.1311 409.718C64.0856 410.557 65.223 411.16 66.4523 411.48C72.7055 413.23 81.27 410.335 83.4408 407.689C83.8046 407.186 84.0491 406.606 84.1557 405.994C84.2624 405.382 84.2284 404.754 84.0564 404.158Z" fill="#37474F"/>
<path d="M70.2 394.751C70.6662 395.08 70.9965 395.567 71.1288 396.122C71.1773 396.831 71.0345 397.54 70.7153 398.174C70.3961 398.809 69.9123 399.346 69.3144 399.73C68.6232 400.162 68.0184 400.01 69.12 398.552C69.8284 397.411 70.2026 396.094 70.2 394.751Z" fill="#FAFAFA"/>
<path d="M69.606 390.452C69.606 390.452 69.9732 390.69 70.0704 391.846C70.0704 392.461 69.1524 394.956 67.9104 395.55C66.6684 396.144 67.3596 394.74 67.9104 394.06C68.7424 393.002 69.3222 391.768 69.606 390.452Z" fill="#FAFAFA"/>
<path d="M70.0163 385.711C70.0163 385.711 70.4159 385.819 70.0163 387.407C69.4424 388.388 68.5565 389.148 67.4999 389.567C66.7223 389.653 66.3443 389.264 67.3055 388.573C68.0399 388.066 69.8759 386.478 70.0163 385.711Z" fill="#FAFAFA"/>
<path d="M77.4684 364.5C77.4684 364.5 81.1296 355.914 94.1652 326.765C98.1072 317.941 99.1332 311.396 100.127 307.066C101.207 302.562 105.613 280.368 105.613 280.368L111.294 317.282C110.192 322.073 109.516 326.952 109.274 331.862C109.274 337.954 110.041 347.209 111.769 359.77C114.404 378.961 115.117 388.93 115.117 388.93C116.467 389.902 120.755 391.792 128.077 391.381C131.425 391.037 134.689 390.128 137.732 388.692C137.732 388.692 139.396 368.723 140.087 354.802C140.724 341.95 141.782 327.424 142.322 319.669C143.402 305.111 143.683 298.836 143.834 275.886C143.986 252.126 142.171 217.091 142.171 217.091L74.6604 215.536C74.6604 215.536 70.2216 225.45 71.5824 245.948C71.0532 265.961 68.0832 304.052 68.0832 304.052C64.3679 313.062 61.9638 322.559 60.9444 332.251C59.9508 341.712 58.4496 354.175 58.4496 354.175C65.6424 353.916 73.5048 358.56 77.4684 364.5Z" fill="#00844B"/>
<path opacity="0.2" d="M105.667 280.562L101.941 254.113C101.941 254.113 93.1823 253.433 82.6631 244.674C82.6631 244.674 84.0455 252.515 98.9711 257.872L102.87 285.401L100.04 307.8C100.04 307.8 105.602 281.07 105.667 280.562Z" fill="black"/>
<path d="M158.328 191.063L160.672 191.462L162.065 193.417C161.859 193.857 161.753 194.336 161.753 194.821C161.753 195.306 161.859 195.786 162.065 196.225C162.788 197.662 163.836 197.208 163.836 197.208L164.916 194.605L165.348 190.987L162.4 188.384L159.505 187.812L158.328 191.063Z" fill="#B16668"/>
<path d="M166.838 189.875C167.146 190.895 167.184 191.978 166.946 193.018C166.689 193.957 166.357 194.874 165.953 195.761C165.65 196.398 164.462 196.398 163.728 194.8C163.123 193.482 163.976 190.544 163.976 190.544L166.838 189.875Z" fill="#F0997A"/>
<path d="M171.256 186.246C171.58 187.909 172.573 191.03 172.757 192.24C172.94 193.45 171.439 193.32 171.439 193.32L167.897 188.222L171.256 186.246Z" fill="#F0997A"/>
<path d="M157.972 173.88C159.559 173.232 159.527 173.21 161.708 174.366C164.67 176.021 167.498 177.906 170.165 180.004C171.634 181.321 171.245 183.881 171.245 186.084C171.245 188.287 171.644 190.663 171.245 191.279C171.191 191.367 171.12 191.443 171.036 191.503C170.952 191.563 170.856 191.605 170.755 191.628C170.655 191.65 170.55 191.651 170.449 191.632C170.347 191.613 170.251 191.574 170.165 191.516L157.972 173.88Z" fill="#FFBDA7"/>
<path d="M171.806 193.806L173.707 200.437C173.717 200.48 173.714 200.525 173.699 200.566C173.683 200.607 173.655 200.642 173.618 200.666C173.582 200.691 173.539 200.704 173.495 200.704C173.451 200.703 173.408 200.689 173.372 200.664L167.81 196.56L171.806 193.806Z" fill="#FFA8A7"/>
<path d="M173.405 200.675L167.81 196.56L169.97 195.113L170.456 195.815L173.556 200.47L173.405 200.675Z" fill="#F28F8F"/>
<path d="M173.372 200.664C173.408 200.689 173.451 200.703 173.495 200.704C173.539 200.704 173.582 200.691 173.618 200.666C173.655 200.642 173.683 200.607 173.699 200.566C173.714 200.525 173.717 200.48 173.707 200.437L173.329 199.141C173.23 199.34 173.075 199.506 172.883 199.619C172.692 199.732 172.471 199.787 172.249 199.778H172.13L173.372 200.664Z" fill="#263238"/>
<path d="M148.586 168.847L148.954 169.366L149.386 170.003L167.81 196.56C168.57 196.712 169.358 196.577 170.024 196.182C170.485 195.96 170.887 195.632 171.197 195.224C171.507 194.817 171.716 194.342 171.806 193.838L153.36 167.292L152.518 166.082C153.047 166.903 149.094 169.657 148.586 168.847Z" fill="#455A64"/>
<path d="M148.586 168.847L148.954 169.366L149.386 170.003L167.81 196.56C168.273 196.649 168.749 196.636 169.206 196.522C169.663 196.409 170.09 196.197 170.456 195.901L151.276 167.94C151.351 167.886 151.351 167.843 151.276 167.821C150.239 168.631 148.867 169.301 148.586 168.847Z" fill="#37474F"/>
<path d="M149.958 170.845L150.779 172.012C151.006 172.357 151.859 172.076 152.766 171.569C153.943 170.91 155.034 169.7 154.732 169.236L154.138 168.372L153.922 168.07C154.213 168.534 153.122 169.744 151.945 170.402C151.092 170.888 150.25 171.169 149.99 170.878L149.958 170.845Z" fill="#EBEBEB"/>
<path d="M150.12 171.137C150.649 171.947 154.602 169.16 154.084 168.361L153.36 167.184C153.878 167.994 149.926 170.77 149.396 169.96L150.12 171.137Z" fill="#37474F"/>
<path d="M148.586 168.847L149.386 170.003C149.893 170.802 153.706 168.156 153.392 167.292L152.572 166.126C153.047 166.903 149.094 169.657 148.586 168.847Z" fill="#EBEBEB"/>
<path d="M146.88 166.45L148.576 168.847C148.792 169.193 149.656 168.912 150.541 168.415C151.718 167.756 152.831 166.547 152.539 166.082L150.833 163.674C150.152 162.691 148.003 163.836 147.096 165.067C146.925 165.249 146.813 165.479 146.775 165.725C146.736 165.972 146.773 166.224 146.88 166.45Z" fill="#F28F8F"/>
<path opacity="0.1" d="M148.522 166.622C149.069 166.445 149.567 166.143 149.977 165.74C150.388 165.337 150.699 164.844 150.887 164.3C150.924 164.169 150.929 164.031 150.9 163.897C150.872 163.763 150.812 163.639 150.725 163.534C149.936 162.821 147.96 163.901 147.107 165.067C146.94 165.247 146.83 165.472 146.789 165.714C146.749 165.955 146.78 166.204 146.88 166.428C147.139 166.795 147.755 166.892 148.522 166.622Z" fill="black"/>
<path d="M158.393 182.984C160.045 184.68 161.892 185.144 165.078 186.019C166.584 186.613 168.01 187.393 169.322 188.341C170.586 189.194 171.18 190.771 168.761 191.894C167.141 192.65 165.089 191.711 163.361 191.376C162.496 191.211 161.616 191.139 160.736 191.16C158.231 191.311 157.799 192.11 154.969 192.748C152.14 193.385 149.882 192.683 148.306 192.953C146.729 193.223 109.922 204.25 109.922 204.25L109.534 183.73C109.534 183.73 140.303 181.418 145.26 180.565C149.278 179.863 154.03 176.58 154.03 176.58L158.393 182.984Z" fill="#FFBDA7"/>
<path d="M148.36 179.636C147.346 180.069 146.289 180.392 145.206 180.598C140.249 181.451 109.48 183.762 109.48 183.762L109.868 204.282C109.868 204.282 146.675 193.266 148.252 192.985C148.611 192.949 148.972 192.949 149.332 192.985L148.36 179.636Z" fill="#F0997A"/>
<path d="M166.655 180.587C166.405 180.932 166.043 181.178 165.63 181.283C165.217 181.387 164.781 181.344 164.398 181.159C163.75 180.814 161.6 179.118 161.6 179.118L167 186.862C166.825 186.181 166.851 185.464 167.076 184.799C167.236 184.561 167.441 184.357 167.68 184.2C167.92 184.042 168.188 183.934 168.469 183.881C167.864 183.787 167.246 183.917 166.73 184.248C166.34 184.037 166.006 183.736 165.756 183.37C165.506 183.003 165.348 182.582 165.294 182.142C166.676 181.181 166.655 180.587 166.655 180.587Z" fill="#F0997A"/>
<path d="M74.1851 131.274C69.7139 139.817 70.0487 149.494 71.3447 161.514C72.5327 172.552 73.3643 179.399 74.3795 193.061C75.5999 208.624 73.4399 218.473 73.4399 218.473C73.4399 218.473 82.5011 231.055 101.963 236.012C136.156 244.717 143.37 233.453 143.37 233.453C143.37 233.453 143.068 221.573 143.111 212.339C143.111 204.012 142.96 194.152 142.679 185.954C142.02 167.13 141.804 151.492 139.622 144.785C138.013 141.07 136.328 139.601 132.214 137.732C128.822 136.188 122.353 133.056 117.526 131.188C108.651 127.978 99.6171 125.224 90.4607 122.936C87.2258 122.545 83.9476 123.13 81.0474 124.615C78.1472 126.101 75.7575 128.42 74.1851 131.274Z" fill="#37474F"/>
<path d="M120.01 122.936L117.547 131.188C111.737 131.371 98.55 129.028 95.8068 126.382L98.3448 116.64L120.01 122.936Z" fill="#FFBDA7"/>
<path d="M139.385 99.4572C139.385 99.4572 141.62 101.887 142.333 109.037L138.013 111.197C137.592 106.153 137.16 101.045 139.385 99.4572Z" fill="#F0997A"/>
<path d="M132.98 78.6456C140.065 80.4492 142.7 87.5772 138.661 102.319C139.158 118.379 133.412 123.638 131.101 125.291C126.155 126.868 121.511 126.371 115.603 123.66C111.1 121.5 99.7596 115.787 96.1632 107.46C91.8432 97.6212 92.7828 84.024 99.9864 80.2332C110.03 74.844 129.233 77.6952 132.98 78.6456Z" fill="#FFBDA7"/>
<path d="M132.44 114.804C132.523 114.842 132.597 114.897 132.656 114.966C132.656 114.966 132.656 115.085 132.743 115.139C132.808 115.265 132.88 115.387 132.959 115.506C133.131 115.761 133.334 115.993 133.564 116.197C133.993 116.561 134.473 116.859 134.989 117.083C135.008 117.091 135.024 117.105 135.036 117.122C135.047 117.139 135.054 117.159 135.054 117.18C135.067 117.203 135.074 117.229 135.074 117.256C135.074 117.282 135.067 117.308 135.054 117.331C134.946 117.418 134.752 117.331 134.622 117.331C134.473 117.292 134.328 117.237 134.19 117.169C133.889 117.026 133.607 116.849 133.348 116.64C133.095 116.44 132.87 116.207 132.678 115.949C132.582 115.822 132.495 115.689 132.419 115.549L132.311 115.355C132.267 115.233 132.267 115.099 132.311 114.977C132.311 114.977 132.354 114.761 132.44 114.804Z" fill="#F0997A"/>
<path d="M131.047 125.28C129.74 126.198 122.98 127.04 119.167 125.885L120.053 122.926C123.593 124.209 127.292 125.001 131.047 125.28Z" fill="#F0997A"/>
<path d="M131.468 89.2836C131.305 90.5008 130.761 91.6351 129.913 92.5236C128.719 93.7538 127.127 94.5194 125.42 94.6836C126.079 96.7781 126.231 98.999 125.863 101.164C125.795 101.852 125.52 102.503 125.075 103.032C124.926 103.228 124.725 103.379 124.495 103.467C124.264 103.555 124.014 103.576 123.772 103.529C123.531 103.482 123.307 103.368 123.127 103.199C122.946 103.031 122.817 102.816 122.753 102.578C122.443 101.335 121.99 100.132 121.403 98.9928C120.619 97.633 119.362 96.61 117.871 96.12C112.223 94.5 110.549 103.453 112.298 106.92C115.16 112.579 118.843 109.966 118.843 109.966C118.843 109.966 119.372 117.979 113.216 120.28C113.216 120.28 103.626 121.705 98.0963 117.493C93.7763 110.776 89.7587 103.226 88.9271 97.1676C87.1127 83.9808 91.0871 76.4964 96.9083 75.4164C98.5175 70.7616 103.529 68.6016 108.14 67.8564C114.404 66.7764 119.772 69.7356 125.798 70.794C128.887 71.3396 132.059 71.1771 135.076 70.3188C136.415 69.9408 138.046 69.4872 139.028 70.4376C139.403 70.8341 139.647 71.3351 139.73 71.874C139.927 72.8254 139.898 73.8098 139.645 74.7478C139.392 75.6858 138.922 76.5511 138.272 77.274C140.054 76.4424 142.754 77.4468 144.126 78.9804C146.081 81.1404 146.048 83.376 144.698 86.1948C143.856 87.8688 139.05 93.0312 131.468 89.2836Z" fill="#263238"/>
<path d="M97.0056 76.68L92.0916 72.5544C92.6513 71.9061 93.445 71.5057 94.299 71.441C95.1531 71.3762 95.9981 71.6523 96.6492 72.2088C96.9707 72.4759 97.2356 72.8046 97.4281 73.1757C97.6206 73.5467 97.7369 73.9525 97.7701 74.3692C97.8033 74.7859 97.7528 75.2051 97.6215 75.6019C97.4902 75.9988 97.2807 76.3653 97.0056 76.68Z" fill="#263238"/>
<path d="M194.854 224.878C193.579 223.603 192.305 222.469 191.246 221.465C190.372 220.633 189.238 219.488 187.294 217.35C186.473 216.432 185.566 216.886 183.859 216.324C182.153 215.762 182.66 214.412 181.591 213.905C180.338 213.3 179.906 213.678 178.697 213.116C177.206 212.436 176.44 210.838 174.614 211.518C171.32 212.738 170.294 214.261 165.726 210.06C154.472 199.66 147.539 193.018 147.539 193.018C147.539 193.018 145.379 164.538 144.493 157.972C143.251 149.062 143.532 142.852 131.879 139.05C131.879 139.05 122.537 143.37 123.239 160.272C123.876 174.884 125.582 189.281 126.479 196.322C127.202 202.262 128.261 203.008 135.702 208.148C153.976 220.784 156.794 222.804 159.095 224.284C162.184 226.271 165.37 228.604 168.815 228.83C171.979 228.992 176.515 226.919 178.729 225.709C182.282 223.776 185.209 222.772 186.343 223.052C187.477 223.333 189.583 225.58 191.743 226.163C193.903 226.746 195.48 225.493 194.854 224.878Z" fill="#FFBDA7"/>
<path d="M132.235 137.732C137.635 140.184 139.795 141.469 142.625 146.081C144.493 149.126 144.785 152.431 145.595 160.51C146.275 167.573 147.215 181.03 147.215 181.03C147.215 181.03 146.005 184.27 138.154 186.829C133.619 188.384 128.686 188.327 124.189 186.667C124.189 186.667 122.645 172.573 122.116 166.741C121.392 158.836 120.798 143.64 132.235 137.732Z" fill="#00844B"/>
<path d="M334.487 69.3036L366.044 87.5556C366.66 87.9228 367.124 88.7976 367.124 90.4824V129.049C367.124 128.79 366.617 129.665 365.99 130.01L361.508 132.559C361.158 132.735 360.772 132.826 360.38 132.826C359.988 132.826 359.602 132.735 359.251 132.559L327.694 114.307C327.374 114.088 327.11 113.797 326.923 113.457C326.735 113.118 326.629 112.74 326.614 112.352V73.7856C326.635 73.3948 326.748 73.0145 326.946 72.6765C327.143 72.3384 327.418 72.0522 327.748 71.8416L332.23 69.2928C332.581 69.1211 332.968 69.0328 333.359 69.0347C333.751 69.0366 334.137 69.1286 334.487 69.3036Z" fill="#00844B"/>
<path opacity="0.2" d="M359.294 132.548C359.645 132.722 360.032 132.812 360.423 132.812C360.814 132.812 361.201 132.722 361.552 132.548L366.034 130C366.66 129.654 367.168 128.779 367.168 129.038V90.4824C367.269 89.7429 367.145 88.99 366.811 88.3224L360.083 92.1888C360.299 92.5344 360.418 92.934 360.418 92.3292V130.885C360.418 132.559 359.953 132.937 359.294 132.548Z" fill="black"/>
<path opacity="0.3" d="M326.624 73.5804C326.722 73.008 327.186 72.8136 327.704 73.1268L359.251 91.3896C359.586 91.5937 359.858 91.8849 360.04 92.232L366.768 88.3656C366.582 88.0341 366.314 87.7554 365.99 87.5556L334.444 69.3036C334.093 69.1278 333.707 69.0363 333.315 69.0363C332.923 69.0363 332.537 69.1278 332.186 69.3036L327.704 71.8524C327.415 72.0507 327.17 72.3064 326.984 72.6038C326.798 72.9011 326.676 73.2336 326.624 73.5804Z" fill="white"/>
<path d="M370.256 118.109C370.958 117.688 376.358 114.653 376.531 114.545C376.658 114.46 376.764 114.349 376.845 114.219C376.925 114.09 376.977 113.945 376.998 113.794C377.018 113.643 377.006 113.49 376.963 113.343C376.92 113.197 376.846 113.062 376.747 112.946L367.2 101.952L360.418 105.84L370.44 116.532C370.537 116.645 370.61 116.777 370.653 116.92C370.697 117.062 370.711 117.213 370.693 117.361C370.676 117.509 370.629 117.652 370.553 117.78C370.478 117.909 370.377 118.021 370.256 118.109Z" fill="#00844B"/>
<path opacity="0.3" d="M370.256 118.109C370.958 117.688 376.358 114.653 376.531 114.545C376.658 114.46 376.764 114.349 376.845 114.219C376.925 114.09 376.977 113.945 376.998 113.794C377.018 113.643 377.006 113.49 376.963 113.343C376.92 113.197 376.846 113.062 376.747 112.946L367.2 101.952L360.418 105.84L370.44 116.532C370.537 116.645 370.61 116.777 370.653 116.92C370.697 117.062 370.711 117.213 370.693 117.361C370.676 117.509 370.629 117.652 370.553 117.78C370.478 117.909 370.377 118.021 370.256 118.109Z" fill="white"/>
<path d="M327.737 73.1376L359.294 91.3896C359.614 91.6062 359.879 91.895 360.066 92.2327C360.254 92.5704 360.36 92.9475 360.374 93.3336V105.84L370.44 116.532C370.577 116.67 370.671 116.844 370.712 117.034C370.753 117.224 370.739 117.422 370.67 117.604C370.602 117.786 370.483 117.944 370.327 118.061C370.172 118.177 369.986 118.246 369.792 118.26L360.407 117.569V131.9C360.407 132.613 359.91 132.905 359.327 132.548L327.769 114.296C327.45 114.077 327.186 113.786 326.998 113.447C326.811 113.107 326.705 112.729 326.689 112.342V73.7856C326.614 73.062 327.121 72.7704 327.737 73.1376Z" fill="#00844B"/>
<path d="M339.887 113.778H339.563C339.162 113.722 338.782 113.568 338.455 113.328C338.129 113.089 337.868 112.772 337.694 112.406L333.806 104.22C333.533 103.639 333.502 102.972 333.719 102.368C333.937 101.763 334.386 101.27 334.967 100.996C335.549 100.723 336.215 100.691 336.82 100.909C337.424 101.127 337.918 101.576 338.191 102.157L340.492 106.92L351.605 93.96C352.034 93.4673 352.642 93.1655 353.294 93.121C353.947 93.0764 354.59 93.2928 355.082 93.7224C355.575 94.1521 355.877 94.7598 355.921 95.412C355.966 96.0642 355.75 96.7073 355.32 97.2L341.766 112.979C341.53 113.241 341.239 113.448 340.915 113.586C340.59 113.724 340.239 113.79 339.887 113.778Z" fill="#FAFAFA"/>
</svg>
